# xmcd CD database file
#
# Track frame offsets:
#	180
#	29300
#	46079
#	69952
#	90868
#	110110
#	132557
#	150466
#	177476
#	204718
#
# Disc length: 2958 seconds
#
# Revision: 2
# Processed by: cddbd v1.5.2PL0 Copyright (c) Steve Scherf et al.
# Submitted via: CDex 1.51
#
DISCID=810b8c0a
DTITLE=Individual Totem - Aspects Of Theories And Reality
DYEAR=1994
DGENRE=Electro
TTITLE0=Alien Research Inc.
TTITLE1=21th Century
TTITLE2=Central Gen Manipulation
TTITLE3=Transmission
TTITLE4=Scanning Instructions
TTITLE5=Psi Trading Company
TTITLE6=Finite State Machine
TTITLE7=Self Replictions Systems
TTITLE8=The Invertor
TTITLE9=Genetic Algorythms In Search
EXTD=YEAR: 1994
EXTT0=
EXTT1=
EXTT2=
EXTT3=
EXTT4=
EXTT5=
EXTT6=
EXTT7=
EXTT8=
EXTT9=
PLAYORDER=
